<svg width="60" height="60" viewBox="0 0 60 60" fill="none" xmlns="http://www.w3.org/2000/svg">
<rect x="0.5" y="0.5" width="59" height="59" rx="29.5" fill="#141414"/>
<rect x="0.5" y="0.5" width="59" height="59" rx="29.5" stroke="#703BF7"/>
<path fill-rule="evenodd" clip-rule="evenodd" d="M25.625 23.875C25.625 21.4588 27.5838 19.5 30 19.5C32.4162 19.5 34.375 21.4588 34.375 23.875C34.375 26.2912 32.4162 28.25 30 28.25C27.5838 28.25 25.625 26.2912 25.625 23.875Z" fill="#A685FA"/>
<path fill-rule="evenodd" clip-rule="evenodd" d="M34.375 27.375C34.375 25.442 35.942 23.875 37.875 23.875C39.808 23.875 41.375 25.442 41.375 27.375C41.375 29.308 39.808 30.875 37.875 30.875C35.942 30.875 34.375 29.308 34.375 27.375Z" fill="#A685FA"/>
<path fill-rule="evenodd" clip-rule="evenodd" d="M18.625 27.375C18.625 25.442 20.192 23.875 22.125 23.875C24.058 23.875 25.625 25.442 25.625 27.375C25.625 29.308 24.058 30.875 22.125 30.875C20.192 30.875 18.625 29.308 18.625 27.375Z" fill="#A685FA"/>
<path fill-rule="evenodd" clip-rule="evenodd" d="M23.3615 33.6371C24.7591 31.4518 27.2097 30 30 30C32.7906 30 35.2415 31.4522 36.639 33.6379C37.6052 35.149 38.0232 36.9711 37.8271 38.7476C37.7965 39.0252 37.6351 39.2715 37.3929 39.4105C35.2143 40.6606 32.6893 41.375 30 41.375C27.3107 41.375 24.7857 40.6606 22.6071 39.4105C22.3649 39.2715 22.2035 39.0252 22.1729 38.7476C21.9768 36.9707 22.395 35.1483 23.3615 33.6371Z" fill="#A685FA"/>
<path d="M21.9293 32.6293C21.9153 32.6509 21.9013 32.6725 21.8874 32.6942C20.7611 34.4554 20.2456 36.5528 20.4038 38.6205C19.6944 38.5128 19.0061 38.3394 18.3455 38.1068L18.2114 38.0595C17.9667 37.9734 17.7958 37.7512 17.7752 37.4926L17.7639 37.3509C17.7547 37.235 17.75 37.1179 17.75 37C17.75 34.6493 19.6039 32.7316 21.9293 32.6293Z" fill="#A685FA"/>
<path d="M39.5966 38.6204C39.7548 36.5532 39.2396 34.4562 38.1136 32.6952C38.0995 32.6732 38.0854 32.6512 38.0711 32.6293C40.3963 32.7319 42.25 34.6495 42.25 37C42.25 37.1179 42.2453 37.235 42.2361 37.3509L42.2248 37.4926C42.2042 37.7512 42.0333 37.9734 41.7886 38.0595L41.6545 38.1068C40.994 38.3394 40.3058 38.5127 39.5966 38.6204Z" fill="#A685FA"/>
</svg>
