<svg width="61" height="60" viewBox="0 0 61 60" fill="none" xmlns="http://www.w3.org/2000/svg">
<rect x="1" y="0.5" width="59" height="59" rx="29.5" fill="#141414"/>
<rect x="1" y="0.5" width="59" height="59" rx="29.5" stroke="#703BF7"/>
<path d="M30.149 19.2728C30.3724 19.1752 30.6263 19.1752 30.8497 19.2728C35.1883 21.1685 39.3002 23.4858 43.1337 26.1728C43.4111 26.3673 43.5514 26.7044 43.4937 27.0382C43.4361 27.3721 43.1909 27.6426 42.8643 27.7328C42.0652 27.9534 41.2731 28.1909 40.4881 28.4441C37.3018 29.4717 34.2347 30.7646 31.3126 32.2969L31.3088 32.2989C31.1763 32.3684 31.0441 32.4384 30.9122 32.5088C30.6546 32.6465 30.3452 32.6465 30.0875 32.5088C29.9544 32.4377 29.8209 32.3671 29.6872 32.2969C28.2423 31.5392 26.7619 30.8401 25.2493 30.2026V29.9416C25.2493 29.7884 25.3279 29.6524 25.4496 29.5787C27.2056 28.5148 29.0169 27.5333 30.8781 26.6393C31.3137 26.43 31.4972 25.9073 31.288 25.4717C31.0788 25.0361 30.556 24.8526 30.1204 25.0618C28.208 25.9804 26.3469 26.9889 24.5428 28.0819C24.0139 28.4024 23.6583 28.9268 23.5413 29.5144C22.5439 29.1307 21.5334 28.7734 20.5106 28.4435C19.7256 28.1904 18.9334 27.9533 18.1344 27.7328C17.8078 27.6426 17.5626 27.3721 17.505 27.0382C17.4473 26.7044 17.5876 26.3673 17.865 26.1728C21.6985 23.4858 25.8104 21.1685 30.149 19.2728Z" fill="#A685FA"/>
<path d="M31.7369 34.0523C34.5823 32.532 37.5717 31.2468 40.6794 30.2224C40.836 31.873 40.936 33.54 40.9774 35.2214C40.9863 35.5822 40.7728 35.9114 40.4398 36.0504C37.1135 37.4392 33.9495 39.1397 30.9845 41.1156C30.6907 41.3115 30.3079 41.3115 30.0141 41.1156C27.0491 39.1397 23.8851 37.4392 20.5588 36.0504C20.2258 35.9114 20.0123 35.5822 20.0212 35.2214C20.0626 33.5399 20.1626 31.8727 20.3193 30.222C21.3938 30.5762 22.4541 30.9615 23.4993 31.377V32.8591C22.9762 33.1617 22.6243 33.7273 22.6243 34.375C22.6243 34.9529 22.9044 35.4653 23.3362 35.784C23.2318 36.2281 23.0772 36.6626 22.8725 37.0787C23.4006 37.328 23.9243 37.5853 24.4432 37.8504C24.7388 37.2493 24.9531 36.6184 25.0861 35.9742C25.6978 35.7014 26.1243 35.088 26.1243 34.375C26.1243 33.7273 25.7723 33.1617 25.2493 32.8591V32.1069C26.6159 32.704 27.9546 33.3533 29.2628 34.0523C30.0358 34.4654 30.9639 34.4654 31.7369 34.0523Z" fill="#A685FA"/>
<path d="M21.7052 38.706C22.1942 38.217 22.5835 37.6663 22.8725 37.0787C23.4006 37.328 23.9243 37.5853 24.4432 37.8504C24.0716 38.6063 23.5712 39.3149 22.9426 39.9434C22.6009 40.2852 22.0469 40.2852 21.7052 39.9434C21.3635 39.6017 21.3635 39.0477 21.7052 38.706Z" fill="#A685FA"/>
</svg>
