<svg width="60" height="60" viewBox="0 0 60 60" fill="none" xmlns="http://www.w3.org/2000/svg">
<rect x="0.5" y="0.5" width="59" height="59" rx="29.5" fill="#141414"/>
<rect x="0.5" y="0.5" width="59" height="59" rx="29.5" stroke="#703BF7"/>
<path fill-rule="evenodd" clip-rule="evenodd" d="M28.5862 19.7458C29.1093 18.4882 30.8908 18.4882 31.4139 19.7458L33.8429 25.5858L40.1477 26.0913C41.5053 26.2001 42.0559 27.8944 41.0215 28.7805L36.2179 32.8953L37.6854 39.0477C38.0015 40.3726 36.5602 41.4197 35.3978 40.7098L30.0001 37.4128L24.6023 40.7098C23.4399 41.4197 21.9986 40.3726 22.3147 39.0477L23.7822 32.8953L18.9787 28.7805C17.9442 27.8945 18.4948 26.2001 19.8525 26.0913L26.1572 25.5858L28.5862 19.7458Z" fill="#A685FA"/>
</svg>
